<?xml version="1.0" standalone="no"?><!DOCTYPE svg PUBLIC "-//W3C//DTD SVG 1.1//EN" "http://www.w3.org/Graphics/SVG/1.1/DTD/svg11.dtd"><svg t="1649152244606" class="icon" viewBox="0 0 1024 1024" version="1.1" xmlns="http://www.w3.org/2000/svg" p-id="7699" xmlns:xlink="http://www.w3.org/1999/xlink" width="200" height="200"><defs><style type="text/css">@font-face { font-family: feedback-iconfont; src: url("//at.alicdn.com/t/font_1031158_u69w8yhxdu.woff2?t=1630033759944") format("woff2"), url("//at.alicdn.com/t/font_1031158_u69w8yhxdu.woff?t=1630033759944") format("woff"), url("//at.alicdn.com/t/font_1031158_u69w8yhxdu.ttf?t=1630033759944") format("truetype"); }
</style></defs><path d="M910.8 519.1c0-1.6-0.2-3.2-0.5-4.8V338.8c0-31-25.3-56.3-56.3-56.3H681.3v-55.1c0-35.7-29-64.7-64.7-64.7H428c-35.7 0-64.7 29-64.7 64.7v55.1H169.5c-31 0-56.3 25.3-56.3 56.3V805c0 31 25.3 56.3 56.3 56.3h684.6c31 0 56.3-25.3 56.3-56.3V523.9c0.3-1.6 0.4-3.2 0.4-4.8zM413.3 227.4c0-8.1 6.6-14.7 14.7-14.7h188.6c8.1 0 14.7 6.6 14.7 14.7v55.1h-218v-55.1zM169.5 332.5h684.6c3.5 0 6.3 2.8 6.3 6.3v155.3H163.1V338.8c0.1-3.4 2.9-6.3 6.4-6.3z m511.8 211.6h71.2v40h-71.2v-40z m-389.2 0h71.2v40h-71.2v-40z m562 267.1H169.5c-3.5 0-6.3-2.8-6.3-6.3V544.1h79v50.1c0 22 17.9 39.8 39.8 39.8h91.5c22 0 39.8-17.9 39.8-39.8v-50.1h218v50.1c0 22 17.9 39.8 39.8 39.8h91.5c22 0 39.8-17.9 39.8-39.8v-50.1h57.9V805c0.1 3.4-2.8 6.2-6.2 6.2z" p-id="7700" fill="#ffffff"></path></svg>