<?xml version="1.0" standalone="no"?><!DOCTYPE svg PUBLIC "-//W3C//DTD SVG 1.1//EN" "http://www.w3.org/Graphics/SVG/1.1/DTD/svg11.dtd"><svg t="1650187094637" class="icon" viewBox="0 0 1026 1024" version="1.1" xmlns="http://www.w3.org/2000/svg" p-id="7770" xmlns:xlink="http://www.w3.org/1999/xlink" width="200.390625" height="200"><defs><style type="text/css">@font-face { font-family: feedback-iconfont; src: url("//at.alicdn.com/t/font_1031158_u69w8yhxdu.woff2?t=1630033759944") format("woff2"), url("//at.alicdn.com/t/font_1031158_u69w8yhxdu.woff?t=1630033759944") format("woff"), url("//at.alicdn.com/t/font_1031158_u69w8yhxdu.ttf?t=1630033759944") format("truetype"); }
</style></defs><path d="M982.016 952.32H467.968c-20.48 0-36.864-16.896-36.864-36.864v-57.344c0-116.736 67.072-221.184 172.544-269.312-36.864-34.304-58.368-81.92-58.368-133.12 0-99.328 80.896-180.736 179.712-180.736s179.712 80.896 179.712 180.736c0 51.2-21.504 98.816-58.368 133.12 105.472 48.128 172.544 152.576 172.544 269.312v57.344c0 19.968-16.384 36.864-36.864 36.864zM724.992 299.52c-85.504 0-154.624 69.632-154.624 155.648 0 48.128 22.016 92.672 59.392 122.88l22.016 17.92-26.112 10.24c-102.912 41.472-169.472 139.776-169.472 251.392v57.344c0 7.168 5.632 12.288 12.288 12.288h513.536c7.168 0 12.288-5.632 12.288-12.288v-57.344c0-111.104-66.56-209.92-169.472-251.392l-26.112-10.24 22.016-17.92c37.376-29.696 59.392-74.752 59.392-122.88-0.512-85.504-69.632-155.648-155.136-155.648z" fill="" p-id="7771"></path><path d="M982.016 960H467.968c-24.576 0-44.544-19.968-44.544-44.544v-57.344c0-115.2 65.024-220.16 166.912-271.36-33.792-34.816-52.736-81.92-52.736-131.072 0-103.936 83.968-188.416 187.392-188.416s187.392 84.48 187.392 188.416c0 48.64-18.944 95.744-52.736 131.072 101.888 51.2 166.912 156.16 166.912 271.36v57.344c0 24.576-19.968 44.544-44.544 44.544zM724.992 282.624C630.272 282.624 552.96 360.448 552.96 455.68c0 48.128 20.48 94.72 55.808 127.488l8.704 7.68-10.752 4.608c-102.4 46.592-167.936 149.504-167.936 262.144v57.344c0 15.872 13.312 29.184 29.184 29.184h513.536c16.384 0 29.184-13.312 29.184-29.184v-57.344c0-112.64-66.048-215.552-167.936-262.144l-10.752-4.608 8.704-7.68c35.328-32.768 55.808-79.36 55.808-127.488 0.512-95.232-76.8-173.056-171.52-173.056z m257.024 652.8H467.968c-11.264 0-19.968-8.704-19.968-19.968v-57.344c0-114.176 68.608-215.552 174.592-258.56l13.824-5.632-11.776-9.728c-39.424-31.744-62.464-78.848-62.464-128.512 0-90.112 72.704-163.328 162.304-163.328s162.304 73.216 162.304 163.328c0 50.688-22.528 97.28-62.464 128.512l-11.776 9.728 13.824 5.632c105.984 43.008 174.592 144.384 174.592 258.56v57.344c1.024 10.752-8.192 19.968-18.944 19.968zM724.992 307.2c-81.408 0-146.944 66.56-146.944 147.968 0 45.568 20.48 88.064 56.32 116.736l32.768 26.112-38.4 15.36c-100.352 40.448-164.864 136.192-164.864 244.224v57.344c0 2.56 2.048 4.608 4.608 4.608h513.536c2.56 0 4.608-2.048 4.608-4.608v-57.344c0-108.032-64.512-203.776-164.864-244.224l-38.4-15.36 32.768-26.112c35.84-28.16 56.32-70.656 56.32-116.736C871.936 373.76 806.4 307.2 724.992 307.2z" fill="" p-id="7772"></path><path d="M315.904 812.032h-4.608C164.352 783.36 49.664 669.184 17.92 521.216-3.072 422.912 15.36 322.56 69.12 238.08s137.216-142.848 233.984-163.84c25.6-5.632 52.224-8.704 78.336-8.704 107.52 0 214.016 50.176 284.16 134.144l1.024 1.536s3.584 6.144 9.216 16.896l10.24 18.944h-21.504c-105.984 0.512-179.2 95.232-189.44 160.768-9.728 63.488 3.072 122.88 35.328 162.304l22.528 17.92-28.16 11.264C424.96 622.08 373.76 693.248 354.304 800.768l-2.048 10.24-10.24 0.512c-13.312 0.512-22.016 0.512-26.112 0.512z m-0.512-25.6h15.36c21.504-105.472 75.264-180.224 156.16-216.576-33.28-45.056-46.592-108.544-35.84-176.128 12.288-80.384 93.184-169.472 193.024-181.248C579.072 136.192 481.28 90.624 382.464 90.624c-24.576 0-49.152 2.56-73.216 7.68C219.136 117.76 141.824 172.032 91.136 250.88 41.472 330.24 24.064 423.936 43.52 515.584c29.184 137.728 136.192 243.712 271.872 270.848z" fill="" p-id="7773"></path><path d="M315.904 819.712h-6.144c-149.504-29.184-266.752-145.408-299.52-296.96-21.504-99.84-2.56-202.24 52.224-288.768C117.76 147.456 202.24 88.064 301.568 66.56c26.624-6.144 53.76-8.704 79.872-8.704 110.08 0 218.624 51.2 290.304 136.704l1.536 2.048c0.512 0.512 4.096 6.656 9.728 17.408l16.384 30.208h-34.304c-101.888 0.512-172.032 91.648-181.76 154.112-9.216 61.44 2.56 117.76 33.28 155.648l32.256 25.6-40.448 16.384c-77.824 31.744-126.976 101.376-145.92 205.824l-3.072 16.384-16.384 1.024c-14.336 0.512-23.04 0.512-27.136 0.512z m-4.096-15.36h4.096c4.096 0 12.8 0 25.6-0.512h4.096l1.024-4.608c19.968-110.08 72.192-182.784 155.136-217.088l15.872-6.144-13.312-10.752c-33.792-40.96-47.104-102.4-36.864-168.448 10.752-68.096 87.04-166.912 197.12-167.424h8.704l-4.096-7.68c-5.632-10.752-9.216-16.384-9.216-16.896l-0.512-0.512c-68.608-81.92-172.544-131.072-278.016-131.072-25.088 0-51.2 3.072-76.8 8.704C209.92 102.4 128.512 159.232 75.776 242.176 22.528 325.12 5.12 423.936 25.6 519.68c30.72 144.896 143.36 256.512 286.208 284.672z m25.088-10.24h-23.04C174.592 765.952 65.536 657.408 35.84 517.12c-19.456-92.672-2.56-188.928 48.64-270.336 51.712-80.896 131.072-136.192 223.232-156.16 24.576-5.12 49.664-7.68 74.752-7.68 100.864 0 201.216 46.592 267.264 124.416l9.216 10.752-13.824 2.048c-97.28 11.264-174.592 99.84-186.368 174.592-10.24 64.512 2.048 126.976 34.304 170.496l5.632 7.68-8.704 4.096c-78.336 35.328-130.56 108.032-151.552 210.944l-1.536 6.144z m-20.992-15.36h8.192c22.016-100.864 74.24-174.08 151.04-211.968-30.72-46.08-42.496-109.056-31.744-174.08 11.776-76.8 84.992-166.4 185.344-185.344-63.488-68.096-154.624-108.544-246.272-108.544-24.064 0-48.128 2.56-71.68 7.68C222.72 125.44 147.456 178.688 97.28 255.488 48.64 333.312 32.256 424.96 51.2 514.048c28.16 134.144 132.096 238.08 264.704 264.704z" fill="" p-id="7774"></path><path d="M244.736 533.504l90.624-91.648V286.208H348.16v155.648l-96.768 96.768z" fill="#FFFFFF" p-id="7775"></path><path d="M363.52 270.848h-43.52v164.864l-98.816 99.84 31.744 23.552L363.52 448z" fill="" p-id="7776"></path></svg>